<svg viewBox="630 190 850 1100" xmlns="http://www.w3.org/2000/svg">
    <defs>
        <linearGradient id="grad1" x1="1543.265833" y1="540.89375" x2="1260.227083" y2="1031.13125" gradientUnits="userSpaceOnUse">
            <stop offset="0" stop-color="#641011"/>
            <stop offset="1" stop-color="#ad1f25"/>
        </linearGradient>
        <linearGradient id="grad2" x1="912.5325" y1="1147.55875" x2="561.366667" y2="539.321667" gradientUnits="userSpaceOnUse">
            <stop offset="0" stop-color="#de2227"/>
            <stop offset="1" stop-color="#641011"/>
        </linearGradient>
        <linearGradient id="grad3" x1="1373.405" y1="786.625" x2="630.705" y2="516.304583" gradientUnits="userSpaceOnUse">
            <stop offset="0" stop-color="#641011"/>
            <stop offset="0.5" stop-color="#de2227"/>
            <stop offset="1" stop-color="#641011"/>
        </linearGradient>
    </defs>
    <path fill="url(#grad1)" d="M 1473.290894 511.942505 C 1473.303345 511.985413 1473.331665 512.025818 1473.331665 512.070862 C 1466.837402 496.260437 1420.719482 459.682129 1320.060425 433.390381 C 1302.856201 496.669556 1270.67041 577.32959 1213.895752 675.683716 C 1156.180786 775.654968 1100.610474 845.039978 1052.762939 892.28125 C 1126.037476 964.63208 1181.225464 984.94458 1198.087402 982.69458 C 1198.087402 982.69458 1279.313232 981.400452 1395.31665 780.452454 C 1496.915771 604.457458 1479.244141 528.159607 1473.290894 511.942505 Z"/>
    <path fill="url(#grad2)" d="M 1052.762939 892.28125 C 1004.919556 845.039978 949.357117 775.66748 891.64624 675.712097 C 834.550049 576.818726 802.327454 495.804993 785.192932 432.397461 C 685.530396 457.643799 640.185425 492.761292 633.695435 508.526672 C 633.695435 508.526672 594.20166 579.526672 710.209167 780.452454 C 826.224609 981.400452 907.442078 982.69458 907.442078 982.69458 C 907.442078 982.69458 907.454529 982.69458 907.48291 982.706665 C 908.215393 982.861267 920.414185 985.144165 1026.175781 990.665833 C 1035.24585 991.133789 1043.998291 991.459106 1052.55542 991.674988 C 1126.375488 993.615845 1180.049683 986.983337 1198.059204 982.706665 C 1198.059204 982.706665 1198.07959 982.69458 1198.087402 982.69458 C 1181.225464 984.94458 1126.037476 964.63208 1052.762939 892.28125 Z"/>
    <path fill="url(#grad3)" d="M 785.192932 432.397461 C 849.983704 415.966675 937.670837 403.727051 1052.770752 403.727051 C 1167.40332 403.727051 1255.069946 416.418335 1320.060425 433.390381 C 1420.719482 459.682129 1466.837402 496.260437 1473.331665 512.070862 C 1473.331665 512.025818 1473.303345 511.985413 1473.290894 511.942505 C 1469.344238 498.824158 1456.205322 469.897461 1434.090088 430.741211 C 1422.704956 410.540894 1408.968018 387.677124 1392.785767 362.758301 C 1333.02002 270.666626 1326.529907 263.907959 1326.529907 263.907959 C 1326.529907 263.907959 1284.79834 194.240356 1052.770752 194.240356 C 820.743774 194.240356 779.02417 263.907959 779.02417 263.907959 C 779.02417 263.907959 772.529968 270.666626 712.756226 362.758301 C 696.915833 387.145874 683.581665 409.193726 672.554565 428.540039 C 650.410828 467.376709 637.675049 495.227112 633.71582 508.45752 C 633.71167 508.47168 633.695435 508.5 633.695435 508.526672 C 640.185425 492.761292 685.530396 457.643799 785.192932 432.397461 Z"/>
</svg>
